<?xml version="1.0" encoding="UTF-8"?>
<svg id="LogoNoir" xmlns="http://www.w3.org/2000/svg" viewBox="0 0 118.68 140.85">
  <defs>
    <style>
      .cls-1 {
        fill: #fff;
        stroke-width: 0px;
      }
    </style>
  </defs>
  <path class="cls-1" d="m59.64,100.45c7-13.87,14.01-27.74,21.12-41.82-.68,0-1.13,0-1.59,0-16.47,0-32.94,0-49.41,0-3.57,0-3.82-.24-3.83-3.79,0-1.84-.01-3.68,0-5.52.02-1.94.57-2.49,2.52-2.5,7.2-.01,14.39,0,21.59,0,.47,0,.94,0,1.54,0v-22.03c1.03,0,1.94-.01,2.84,0,2.96.04,5.92-.06,8.86.19,3.77.32,6.05,2.38,6.6,5.7.53,3.16-.54,6.55-4.1,8.09-.14.06-.26.17-.45.3,1.69,2.46,3.33,4.91,5.05,7.31.21.29.81.42,1.23.42,7.16.02,14.31.02,21.47.02,2.55,0,2.78.34,2.9,2.92.14,3.09-.65,5.9-2,8.64-8.64,17.65-17.23,35.32-25.84,52.98-.28.57-.52,1.17-.83,1.73-.87,1.55-2.15,2.35-4.01,2.33-5.2-.05-10.39-.02-15.59-.02-2.47,0-2.86-.39-2.86-2.83,0-12.11,0-24.22,0-36.33,0-.47,0-.95,0-1.6-.52,0-.94,0-1.36,0-4.84,0-9.67,0-14.51,0-2.52,0-3.04-.52-3.05-3.01-.01-2.16-.02-4.32,0-6.47.02-1.81.59-2.41,2.37-2.42,9.47-.01,18.95,0,28.42.02,2.3,0,2.64.4,2.64,2.81.01,11.19,0,22.38,0,33.57,0,.42,0,.84,0,1.25.09.02.17.04.26.05Zm5.28-53.7c-1.38-2.07-2.61-3.97-3.92-5.82-.39-.56-.99-.98-1.65-1.62v-3.66c1.26-.13,2.47-.12,3.62-.4,1.44-.34,2.16-1.55,2.1-3.09-.06-1.44-.89-2.64-2.34-2.76-2.05-.17-4.12-.04-6.21-.04v17.39h8.4Z"/>
  <path class="cls-1" d="m110.09,70.41c0,9.43-.02,18.86.02,28.3,0,1.33-.44,2.13-1.58,2.8-10.03,5.95-20.04,11.95-30.06,17.92-1.27.76-2.25.63-2.8-.34-.55-.95-.17-1.94,1.03-2.66,9.6-5.74,19.2-11.48,28.82-17.18.91-.54,1.22-1.11,1.22-2.16-.04-17.86-.03-35.73-.01-53.59,0-.79-.17-1.29-.91-1.73-15.07-8.97-30.13-17.96-45.17-26.98-.77-.46-1.29-.42-2.02.04-4.02,2.46-8.08,4.86-12.13,7.27-1.16.69-2.17.5-2.68-.44-.46-.84-.24-1.84.68-2.39,4.82-2.91,9.65-5.82,14.52-8.64.42-.25,1.33,0,1.84.29,9.04,5.35,18.06,10.75,27.08,16.13,6.86,4.1,13.71,8.21,20.59,12.28,1.13.67,1.6,1.46,1.6,2.79-.05,9.43-.02,18.86-.02,28.3Z"/>
  <path class="cls-1" d="m9.17,70.37c0-9.35.02-18.7-.02-28.06,0-1.4.46-2.28,1.68-3,9.15-5.41,18.26-10.88,27.38-16.33,1.26-.75,2.24-.62,2.79.34.55.96.2,1.91-1.04,2.65-8.77,5.26-17.55,10.51-26.34,15.73-.75.45-1.02.93-1.02,1.8.02,17.94.02,35.89,0,53.83,0,.8.19,1.29.92,1.73,15.14,9.01,30.26,18.05,45.37,27.1.63.38,1.05.29,1.62-.06,3.24-1.97,6.5-3.92,9.77-5.85,1.24-.73,2.59-.3,2.69.97.05.62-.33,1.58-.82,1.89-3.75,2.36-7.58,4.61-11.39,6.87-.94.56-1.81.25-2.69-.28-8.19-4.91-16.39-9.8-24.58-14.7-7.55-4.51-15.08-9.03-22.65-13.49-1.22-.72-1.7-1.59-1.69-3,.05-9.39.02-18.78.02-28.17Z"/>
  <rect class="cls-1" x="58.47" y="35.65" width=".44" height="3.66"/>
</svg>